<mxfile host="app.diagrams.net" modified="2024-04-02T02:17:33.139Z" agent="Mozilla/5.0 (Windows NT 10.0; Win64; x64) AppleWebKit/537.36 (KHTML, like Gecko) Chrome/123.0.0.0 Safari/537.36" etag="qQP56UufikMlrPiIYX8q" version="24.2.1" type="device">
  <diagram name="페이지-1" id="yOGc47Db6DorSXFMng4b">
    <mxGraphModel dx="2022" dy="650" grid="1" gridSize="10" guides="1" tooltips="1" connect="1" arrows="1" fold="1" page="1" pageScale="1" pageWidth="827" pageHeight="1169" math="0" shadow="0">
      <root>
        <mxCell id="0" />
        <mxCell id="1" parent="0" />
        <mxCell id="PkiAVml4FqlAzw377sm1-1" value="&lt;font style=&quot;font-size: 20px;&quot;&gt;traffic&lt;/font&gt;&lt;div&gt;&lt;font style=&quot;font-size: 14px;&quot;&gt;(교통편)&lt;/font&gt;&lt;/div&gt;" style="rounded=0;whiteSpace=wrap;html=1;" parent="1" vertex="1">
          <mxGeometry x="216" y="480" width="120" height="60" as="geometry" />
        </mxCell>
        <mxCell id="PkiAVml4FqlAzw377sm1-2" value="ttype&lt;div&gt;(종류)&lt;/div&gt;" style="ellipse;whiteSpace=wrap;html=1;" parent="1" vertex="1">
          <mxGeometry x="114" y="572" width="90" height="50" as="geometry" />
        </mxCell>
        <mxCell id="PkiAVml4FqlAzw377sm1-3" value="&lt;div&gt;no&lt;/div&gt;&lt;div&gt;(번호)&lt;/div&gt;" style="ellipse;whiteSpace=wrap;html=1;" parent="1" vertex="1">
          <mxGeometry x="210" y="572" width="90" height="50" as="geometry" />
        </mxCell>
        <mxCell id="PkiAVml4FqlAzw377sm1-4" value="route&lt;div&gt;(노선도)&lt;/div&gt;" style="ellipse;whiteSpace=wrap;html=1;" parent="1" vertex="1">
          <mxGeometry x="307" y="572" width="90" height="50" as="geometry" />
        </mxCell>
        <mxCell id="PkiAVml4FqlAzw377sm1-5" value="coment&lt;div&gt;(설명)&lt;/div&gt;" style="ellipse;whiteSpace=wrap;html=1;" parent="1" vertex="1">
          <mxGeometry x="406" y="572" width="90" height="50" as="geometry" />
        </mxCell>
        <mxCell id="PkiAVml4FqlAzw377sm1-6" value="" style="endArrow=classic;html=1;rounded=0;exitX=0.5;exitY=1;exitDx=0;exitDy=0;entryX=0.5;entryY=0;entryDx=0;entryDy=0;" parent="1" source="PkiAVml4FqlAzw377sm1-1" target="PkiAVml4FqlAzw377sm1-2" edge="1">
          <mxGeometry width="50" height="50" relative="1" as="geometry">
            <mxPoint x="286" y="660" as="sourcePoint" />
            <mxPoint x="336" y="610" as="targetPoint" />
          </mxGeometry>
        </mxCell>
        <mxCell id="PkiAVml4FqlAzw377sm1-7" value="" style="endArrow=classic;html=1;rounded=0;entryX=0.5;entryY=0;entryDx=0;entryDy=0;" parent="1" target="PkiAVml4FqlAzw377sm1-3" edge="1">
          <mxGeometry width="50" height="50" relative="1" as="geometry">
            <mxPoint x="276" y="540" as="sourcePoint" />
            <mxPoint x="336" y="610" as="targetPoint" />
          </mxGeometry>
        </mxCell>
        <mxCell id="PkiAVml4FqlAzw377sm1-8" value="" style="endArrow=classic;html=1;rounded=0;entryX=0.5;entryY=0;entryDx=0;entryDy=0;" parent="1" target="PkiAVml4FqlAzw377sm1-4" edge="1">
          <mxGeometry width="50" height="50" relative="1" as="geometry">
            <mxPoint x="276" y="540" as="sourcePoint" />
            <mxPoint x="336" y="610" as="targetPoint" />
          </mxGeometry>
        </mxCell>
        <mxCell id="PkiAVml4FqlAzw377sm1-9" value="" style="endArrow=classic;html=1;rounded=0;exitX=0.5;exitY=1;exitDx=0;exitDy=0;entryX=0.5;entryY=0;entryDx=0;entryDy=0;" parent="1" source="PkiAVml4FqlAzw377sm1-1" target="PkiAVml4FqlAzw377sm1-5" edge="1">
          <mxGeometry width="50" height="50" relative="1" as="geometry">
            <mxPoint x="286" y="660" as="sourcePoint" />
            <mxPoint x="336" y="610" as="targetPoint" />
          </mxGeometry>
        </mxCell>
        <mxCell id="PkiAVml4FqlAzw377sm1-10" value="&lt;div&gt;&lt;font style=&quot;font-size: 20px;&quot;&gt;guide&lt;/font&gt;&lt;/div&gt;&lt;font style=&quot;font-size: 15px;&quot;&gt;(안내사항)&lt;/font&gt;" style="rounded=0;whiteSpace=wrap;html=1;" parent="1" vertex="1">
          <mxGeometry x="1145" y="500" width="120" height="60" as="geometry" />
        </mxCell>
        <mxCell id="PkiAVml4FqlAzw377sm1-12" value="pcode&lt;div&gt;(장소코드)&lt;/div&gt;" style="ellipse;whiteSpace=wrap;html=1;fontStyle=5;fontColor=#FF0000;" parent="1" vertex="1">
          <mxGeometry x="740" y="600" width="90" height="45" as="geometry" />
        </mxCell>
        <mxCell id="PkiAVml4FqlAzw377sm1-13" value="pname&lt;div&gt;(장소이름)&lt;/div&gt;" style="ellipse;whiteSpace=wrap;html=1;" parent="1" vertex="1">
          <mxGeometry x="860" y="600" width="90" height="45" as="geometry" />
        </mxCell>
        <mxCell id="PkiAVml4FqlAzw377sm1-14" value="ptype&lt;div&gt;(장소종류)&lt;/div&gt;" style="ellipse;whiteSpace=wrap;html=1;" parent="1" vertex="1">
          <mxGeometry x="980" y="600" width="90" height="45" as="geometry" />
        </mxCell>
        <mxCell id="PkiAVml4FqlAzw377sm1-15" value="paddr&lt;div&gt;(장소주소)&lt;/div&gt;" style="ellipse;whiteSpace=wrap;html=1;" parent="1" vertex="1">
          <mxGeometry x="1100" y="600" width="90" height="45" as="geometry" />
        </mxCell>
        <mxCell id="PkiAVml4FqlAzw377sm1-16" value="ptel&lt;div&gt;(장소연락처)&lt;/div&gt;" style="ellipse;whiteSpace=wrap;html=1;" parent="1" vertex="1">
          <mxGeometry x="1220" y="600" width="90" height="45" as="geometry" />
        </mxCell>
        <mxCell id="PkiAVml4FqlAzw377sm1-17" value="pgps&lt;div&gt;(장소GPS값)&lt;/div&gt;" style="ellipse;whiteSpace=wrap;html=1;" parent="1" vertex="1">
          <mxGeometry x="1340" y="600" width="90" height="45" as="geometry" />
        </mxCell>
        <mxCell id="PkiAVml4FqlAzw377sm1-18" value="pcoment&lt;div&gt;(장소설명)&lt;/div&gt;" style="ellipse;whiteSpace=wrap;html=1;" parent="1" vertex="1">
          <mxGeometry x="1460" y="600" width="90" height="45" as="geometry" />
        </mxCell>
        <mxCell id="PkiAVml4FqlAzw377sm1-19" value="premark&lt;div&gt;(참고사항)&lt;/div&gt;" style="ellipse;whiteSpace=wrap;html=1;" parent="1" vertex="1">
          <mxGeometry x="1580" y="600" width="90" height="45" as="geometry" />
        </mxCell>
        <mxCell id="PkiAVml4FqlAzw377sm1-20" value="" style="endArrow=classic;html=1;rounded=0;exitX=0.472;exitY=0.993;exitDx=0;exitDy=0;exitPerimeter=0;entryX=0.5;entryY=0;entryDx=0;entryDy=0;" parent="1" source="PkiAVml4FqlAzw377sm1-10" target="PkiAVml4FqlAzw377sm1-15" edge="1">
          <mxGeometry width="50" height="50" relative="1" as="geometry">
            <mxPoint x="1211" y="700" as="sourcePoint" />
            <mxPoint x="1261" y="650" as="targetPoint" />
          </mxGeometry>
        </mxCell>
        <mxCell id="PkiAVml4FqlAzw377sm1-21" value="" style="endArrow=classic;html=1;rounded=0;exitX=0.5;exitY=1;exitDx=0;exitDy=0;entryX=0.5;entryY=0;entryDx=0;entryDy=0;" parent="1" source="PkiAVml4FqlAzw377sm1-10" target="PkiAVml4FqlAzw377sm1-16" edge="1">
          <mxGeometry width="50" height="50" relative="1" as="geometry">
            <mxPoint x="1211" y="700" as="sourcePoint" />
            <mxPoint x="1261" y="650" as="targetPoint" />
          </mxGeometry>
        </mxCell>
        <mxCell id="PkiAVml4FqlAzw377sm1-22" value="" style="endArrow=classic;html=1;rounded=0;exitX=0.5;exitY=1;exitDx=0;exitDy=0;entryX=0.5;entryY=0;entryDx=0;entryDy=0;" parent="1" source="PkiAVml4FqlAzw377sm1-10" target="PkiAVml4FqlAzw377sm1-17" edge="1">
          <mxGeometry width="50" height="50" relative="1" as="geometry">
            <mxPoint x="1211" y="700" as="sourcePoint" />
            <mxPoint x="1261" y="650" as="targetPoint" />
          </mxGeometry>
        </mxCell>
        <mxCell id="PkiAVml4FqlAzw377sm1-23" value="" style="endArrow=classic;html=1;rounded=0;exitX=0.5;exitY=1;exitDx=0;exitDy=0;entryX=0.5;entryY=0;entryDx=0;entryDy=0;" parent="1" source="PkiAVml4FqlAzw377sm1-10" target="PkiAVml4FqlAzw377sm1-18" edge="1">
          <mxGeometry width="50" height="50" relative="1" as="geometry">
            <mxPoint x="1211" y="700" as="sourcePoint" />
            <mxPoint x="1261" y="650" as="targetPoint" />
          </mxGeometry>
        </mxCell>
        <mxCell id="PkiAVml4FqlAzw377sm1-24" value="" style="endArrow=classic;html=1;rounded=0;exitX=0.5;exitY=1;exitDx=0;exitDy=0;entryX=0.5;entryY=0;entryDx=0;entryDy=0;" parent="1" source="PkiAVml4FqlAzw377sm1-10" target="PkiAVml4FqlAzw377sm1-19" edge="1">
          <mxGeometry width="50" height="50" relative="1" as="geometry">
            <mxPoint x="1371" y="660" as="sourcePoint" />
            <mxPoint x="1421" y="610" as="targetPoint" />
          </mxGeometry>
        </mxCell>
        <mxCell id="PkiAVml4FqlAzw377sm1-25" value="" style="endArrow=classic;html=1;rounded=0;exitX=0.5;exitY=1;exitDx=0;exitDy=0;entryX=0.5;entryY=0;entryDx=0;entryDy=0;" parent="1" source="PkiAVml4FqlAzw377sm1-10" target="PkiAVml4FqlAzw377sm1-14" edge="1">
          <mxGeometry width="50" height="50" relative="1" as="geometry">
            <mxPoint x="1001" y="630" as="sourcePoint" />
            <mxPoint x="1051" y="580" as="targetPoint" />
          </mxGeometry>
        </mxCell>
        <mxCell id="PkiAVml4FqlAzw377sm1-26" value="" style="endArrow=classic;html=1;rounded=0;entryX=0.5;entryY=0;entryDx=0;entryDy=0;" parent="1" target="PkiAVml4FqlAzw377sm1-13" edge="1">
          <mxGeometry width="50" height="50" relative="1" as="geometry">
            <mxPoint x="1211" y="560" as="sourcePoint" />
            <mxPoint x="1051" y="580" as="targetPoint" />
          </mxGeometry>
        </mxCell>
        <mxCell id="PkiAVml4FqlAzw377sm1-27" value="" style="endArrow=classic;html=1;rounded=0;entryX=0.542;entryY=-0.027;entryDx=0;entryDy=0;entryPerimeter=0;exitX=0.5;exitY=1;exitDx=0;exitDy=0;" parent="1" source="PkiAVml4FqlAzw377sm1-10" target="PkiAVml4FqlAzw377sm1-12" edge="1">
          <mxGeometry width="50" height="50" relative="1" as="geometry">
            <mxPoint x="1001" y="630" as="sourcePoint" />
            <mxPoint x="1051" y="580" as="targetPoint" />
          </mxGeometry>
        </mxCell>
        <mxCell id="PkiAVml4FqlAzw377sm1-28" value="&lt;font style=&quot;font-size: 20px;&quot;&gt;notice&lt;/font&gt;&lt;div&gt;&lt;font style=&quot;font-size: 15px;&quot;&gt;(공지사항)&lt;/font&gt;&lt;/div&gt;" style="rounded=0;whiteSpace=wrap;html=1;" parent="1" vertex="1">
          <mxGeometry x="228" y="770" width="120" height="60" as="geometry" />
        </mxCell>
        <mxCell id="PkiAVml4FqlAzw377sm1-29" value="&lt;div&gt;no&lt;/div&gt;(글번호)" style="ellipse;whiteSpace=wrap;html=1;fontStyle=5;fontColor=#FF0000;" parent="1" vertex="1">
          <mxGeometry x="-60" y="890" width="120" height="50" as="geometry" />
        </mxCell>
        <mxCell id="PkiAVml4FqlAzw377sm1-30" value="&lt;div&gt;title&lt;/div&gt;(글제목)" style="ellipse;whiteSpace=wrap;html=1;" parent="1" vertex="1">
          <mxGeometry x="86" y="890" width="120" height="50" as="geometry" />
        </mxCell>
        <mxCell id="PkiAVml4FqlAzw377sm1-31" value="&lt;div&gt;content&lt;/div&gt;(글내용)" style="ellipse;whiteSpace=wrap;html=1;" parent="1" vertex="1">
          <mxGeometry x="234" y="890" width="120" height="50" as="geometry" />
        </mxCell>
        <mxCell id="PkiAVml4FqlAzw377sm1-32" value="&lt;div&gt;resdate&lt;/div&gt;(작성일시)" style="ellipse;whiteSpace=wrap;html=1;" parent="1" vertex="1">
          <mxGeometry x="376" y="890" width="120" height="50" as="geometry" />
        </mxCell>
        <mxCell id="PkiAVml4FqlAzw377sm1-33" value="&lt;div&gt;visited&lt;/div&gt;(읽은횟수)" style="ellipse;whiteSpace=wrap;html=1;" parent="1" vertex="1">
          <mxGeometry x="516" y="890" width="120" height="50" as="geometry" />
        </mxCell>
        <mxCell id="PkiAVml4FqlAzw377sm1-34" value="" style="endArrow=classic;html=1;rounded=0;exitX=0.5;exitY=1;exitDx=0;exitDy=0;entryX=0.5;entryY=0;entryDx=0;entryDy=0;" parent="1" source="PkiAVml4FqlAzw377sm1-28" target="PkiAVml4FqlAzw377sm1-29" edge="1">
          <mxGeometry width="50" height="50" relative="1" as="geometry">
            <mxPoint x="294" y="920" as="sourcePoint" />
            <mxPoint x="344" y="870" as="targetPoint" />
          </mxGeometry>
        </mxCell>
        <mxCell id="PkiAVml4FqlAzw377sm1-35" value="" style="endArrow=classic;html=1;rounded=0;exitX=0.5;exitY=1;exitDx=0;exitDy=0;entryX=0.5;entryY=0;entryDx=0;entryDy=0;" parent="1" source="PkiAVml4FqlAzw377sm1-28" target="PkiAVml4FqlAzw377sm1-30" edge="1">
          <mxGeometry width="50" height="50" relative="1" as="geometry">
            <mxPoint x="294" y="920" as="sourcePoint" />
            <mxPoint x="344" y="870" as="targetPoint" />
          </mxGeometry>
        </mxCell>
        <mxCell id="PkiAVml4FqlAzw377sm1-36" value="" style="endArrow=classic;html=1;rounded=0;entryX=0.5;entryY=0;entryDx=0;entryDy=0;" parent="1" target="PkiAVml4FqlAzw377sm1-31" edge="1">
          <mxGeometry width="50" height="50" relative="1" as="geometry">
            <mxPoint x="284" y="830" as="sourcePoint" />
            <mxPoint x="344" y="870" as="targetPoint" />
          </mxGeometry>
        </mxCell>
        <mxCell id="PkiAVml4FqlAzw377sm1-37" value="" style="endArrow=classic;html=1;rounded=0;entryX=0.5;entryY=0;entryDx=0;entryDy=0;" parent="1" target="PkiAVml4FqlAzw377sm1-32" edge="1">
          <mxGeometry width="50" height="50" relative="1" as="geometry">
            <mxPoint x="284" y="830" as="sourcePoint" />
            <mxPoint x="344" y="870" as="targetPoint" />
          </mxGeometry>
        </mxCell>
        <mxCell id="PkiAVml4FqlAzw377sm1-38" value="" style="endArrow=classic;html=1;rounded=0;entryX=0.5;entryY=0;entryDx=0;entryDy=0;" parent="1" target="PkiAVml4FqlAzw377sm1-33" edge="1">
          <mxGeometry width="50" height="50" relative="1" as="geometry">
            <mxPoint x="284" y="830" as="sourcePoint" />
            <mxPoint x="344" y="870" as="targetPoint" />
          </mxGeometry>
        </mxCell>
        <mxCell id="35FWn0BOx3e-7nPWBhw9-17" style="edgeStyle=orthogonalEdgeStyle;rounded=0;orthogonalLoop=1;jettySize=auto;html=1;exitX=0.5;exitY=0;exitDx=0;exitDy=0;entryX=1;entryY=0.5;entryDx=0;entryDy=0;" parent="1" source="PkiAVml4FqlAzw377sm1-39" target="35FWn0BOx3e-7nPWBhw9-14" edge="1">
          <mxGeometry relative="1" as="geometry" />
        </mxCell>
        <mxCell id="PkiAVml4FqlAzw377sm1-39" value="&lt;font style=&quot;font-size: 22px;&quot;&gt;qna&lt;/font&gt;&lt;div&gt;&lt;font style=&quot;font-size: 15px;&quot;&gt;(묻고 답하기)&lt;/font&gt;&lt;/div&gt;" style="rounded=0;whiteSpace=wrap;html=1;" parent="1" vertex="1">
          <mxGeometry x="1096" y="1200" width="120" height="60" as="geometry" />
        </mxCell>
        <mxCell id="PkiAVml4FqlAzw377sm1-40" value="&lt;div&gt;no&lt;/div&gt;(글번호)" style="ellipse;whiteSpace=wrap;html=1;fontStyle=5;fontColor=#FF0000;" parent="1" vertex="1">
          <mxGeometry x="573" y="1310" width="120" height="50" as="geometry" />
        </mxCell>
        <mxCell id="PkiAVml4FqlAzw377sm1-41" value="&lt;div&gt;title&lt;/div&gt;(글제목)" style="ellipse;whiteSpace=wrap;html=1;" parent="1" vertex="1">
          <mxGeometry x="991" y="1310" width="120" height="50" as="geometry" />
        </mxCell>
        <mxCell id="PkiAVml4FqlAzw377sm1-42" value="&lt;div&gt;plevel&lt;/div&gt;(글종류)" style="ellipse;whiteSpace=wrap;html=1;" parent="1" vertex="1">
          <mxGeometry x="713" y="1310" width="120" height="50" as="geometry" />
        </mxCell>
        <mxCell id="PkiAVml4FqlAzw377sm1-43" value="&lt;div&gt;parno&lt;/div&gt;(부모글번호)" style="ellipse;whiteSpace=wrap;html=1;" parent="1" vertex="1">
          <mxGeometry x="856" y="1310" width="120" height="50" as="geometry" />
        </mxCell>
        <mxCell id="PkiAVml4FqlAzw377sm1-44" value="&lt;div&gt;content&lt;/div&gt;(글내용)" style="ellipse;whiteSpace=wrap;html=1;" parent="1" vertex="1">
          <mxGeometry x="1124" y="1310" width="120" height="50" as="geometry" />
        </mxCell>
        <mxCell id="PkiAVml4FqlAzw377sm1-45" value="&lt;div&gt;resdate&lt;/div&gt;(작성일시)" style="ellipse;whiteSpace=wrap;html=1;" parent="1" vertex="1">
          <mxGeometry x="1262" y="1310" width="120" height="50" as="geometry" />
        </mxCell>
        <mxCell id="PkiAVml4FqlAzw377sm1-46" value="&lt;div&gt;visited&lt;/div&gt;(읽은횟수)" style="ellipse;whiteSpace=wrap;html=1;" parent="1" vertex="1">
          <mxGeometry x="1398" y="1310" width="120" height="50" as="geometry" />
        </mxCell>
        <mxCell id="PkiAVml4FqlAzw377sm1-47" value="&lt;div&gt;aid&lt;/div&gt;(작성자)" style="ellipse;whiteSpace=wrap;html=1;fontColor=#0000FF;fontStyle=1" parent="1" vertex="1">
          <mxGeometry x="1539" y="1310" width="120" height="50" as="geometry" />
        </mxCell>
        <mxCell id="PkiAVml4FqlAzw377sm1-48" value="&lt;span style=&quot;font-size: 22px;&quot;&gt;data&lt;/span&gt;&lt;br&gt;&lt;div&gt;&lt;font style=&quot;font-size: 15px;&quot;&gt;(자료실)&lt;/font&gt;&lt;/div&gt;" style="rounded=0;whiteSpace=wrap;html=1;" parent="1" vertex="1">
          <mxGeometry x="1146.5" y="780" width="137" height="60" as="geometry" />
        </mxCell>
        <mxCell id="PkiAVml4FqlAzw377sm1-49" value="&lt;div&gt;no&lt;/div&gt;(글번호)" style="ellipse;whiteSpace=wrap;html=1;fontStyle=5;fontColor=#FF0000;" parent="1" vertex="1">
          <mxGeometry x="748.5" y="881" width="120" height="50" as="geometry" />
        </mxCell>
        <mxCell id="PkiAVml4FqlAzw377sm1-50" value="&lt;div&gt;title&lt;/div&gt;(글제목)" style="ellipse;whiteSpace=wrap;html=1;" parent="1" vertex="1">
          <mxGeometry x="894.5" y="881" width="120" height="50" as="geometry" />
        </mxCell>
        <mxCell id="PkiAVml4FqlAzw377sm1-51" value="&lt;div&gt;content&lt;/div&gt;(글내용)" style="ellipse;whiteSpace=wrap;html=1;" parent="1" vertex="1">
          <mxGeometry x="1042.5" y="881" width="120" height="50" as="geometry" />
        </mxCell>
        <mxCell id="PkiAVml4FqlAzw377sm1-52" value="&lt;div&gt;resdate&lt;/div&gt;(작성일시)" style="ellipse;whiteSpace=wrap;html=1;" parent="1" vertex="1">
          <mxGeometry x="1303.5" y="881" width="120" height="50" as="geometry" />
        </mxCell>
        <mxCell id="PkiAVml4FqlAzw377sm1-53" value="&lt;div&gt;visited&lt;/div&gt;(읽은횟수)" style="ellipse;whiteSpace=wrap;html=1;" parent="1" vertex="1">
          <mxGeometry x="1443.5" y="881" width="120" height="50" as="geometry" />
        </mxCell>
        <mxCell id="PkiAVml4FqlAzw377sm1-54" value="&lt;div&gt;datefile&lt;/div&gt;(자료파일)" style="ellipse;whiteSpace=wrap;html=1;" parent="1" vertex="1">
          <mxGeometry x="1173.5" y="881" width="120" height="50" as="geometry" />
        </mxCell>
        <mxCell id="PkiAVml4FqlAzw377sm1-55" value="" style="endArrow=classic;html=1;rounded=0;exitX=0.5;exitY=1;exitDx=0;exitDy=0;entryX=0.5;entryY=0;entryDx=0;entryDy=0;" parent="1" source="PkiAVml4FqlAzw377sm1-39" target="PkiAVml4FqlAzw377sm1-40" edge="1">
          <mxGeometry width="50" height="50" relative="1" as="geometry">
            <mxPoint x="1133" y="1410" as="sourcePoint" />
            <mxPoint x="1183" y="1360" as="targetPoint" />
          </mxGeometry>
        </mxCell>
        <mxCell id="PkiAVml4FqlAzw377sm1-56" value="" style="endArrow=classic;html=1;rounded=0;entryX=0.5;entryY=0;entryDx=0;entryDy=0;exitX=0.467;exitY=0.993;exitDx=0;exitDy=0;exitPerimeter=0;" parent="1" source="PkiAVml4FqlAzw377sm1-39" target="PkiAVml4FqlAzw377sm1-43" edge="1">
          <mxGeometry width="50" height="50" relative="1" as="geometry">
            <mxPoint x="1053" y="1330" as="sourcePoint" />
            <mxPoint x="1103" y="1280" as="targetPoint" />
          </mxGeometry>
        </mxCell>
        <mxCell id="PkiAVml4FqlAzw377sm1-57" value="" style="endArrow=classic;html=1;rounded=0;exitX=0.5;exitY=1;exitDx=0;exitDy=0;entryX=0.5;entryY=0;entryDx=0;entryDy=0;" parent="1" source="PkiAVml4FqlAzw377sm1-39" target="PkiAVml4FqlAzw377sm1-41" edge="1">
          <mxGeometry width="50" height="50" relative="1" as="geometry">
            <mxPoint x="1053" y="1330" as="sourcePoint" />
            <mxPoint x="1103" y="1280" as="targetPoint" />
          </mxGeometry>
        </mxCell>
        <mxCell id="PkiAVml4FqlAzw377sm1-58" value="" style="endArrow=classic;html=1;rounded=0;exitX=0.5;exitY=1;exitDx=0;exitDy=0;entryX=0.5;entryY=0;entryDx=0;entryDy=0;" parent="1" source="PkiAVml4FqlAzw377sm1-39" target="PkiAVml4FqlAzw377sm1-44" edge="1">
          <mxGeometry width="50" height="50" relative="1" as="geometry">
            <mxPoint x="1053" y="1330" as="sourcePoint" />
            <mxPoint x="1103" y="1280" as="targetPoint" />
          </mxGeometry>
        </mxCell>
        <mxCell id="PkiAVml4FqlAzw377sm1-59" value="" style="endArrow=classic;html=1;rounded=0;exitX=0.5;exitY=1;exitDx=0;exitDy=0;entryX=0.5;entryY=0;entryDx=0;entryDy=0;" parent="1" source="PkiAVml4FqlAzw377sm1-39" target="PkiAVml4FqlAzw377sm1-45" edge="1">
          <mxGeometry width="50" height="50" relative="1" as="geometry">
            <mxPoint x="1353" y="1340" as="sourcePoint" />
            <mxPoint x="1403" y="1290" as="targetPoint" />
          </mxGeometry>
        </mxCell>
        <mxCell id="PkiAVml4FqlAzw377sm1-60" value="" style="endArrow=classic;html=1;rounded=0;entryX=0.5;entryY=0;entryDx=0;entryDy=0;" parent="1" target="PkiAVml4FqlAzw377sm1-46" edge="1">
          <mxGeometry width="50" height="50" relative="1" as="geometry">
            <mxPoint x="1153" y="1260" as="sourcePoint" />
            <mxPoint x="1403" y="1290" as="targetPoint" />
          </mxGeometry>
        </mxCell>
        <mxCell id="PkiAVml4FqlAzw377sm1-61" value="" style="endArrow=classic;html=1;rounded=0;exitX=0.5;exitY=1;exitDx=0;exitDy=0;entryX=0.5;entryY=0;entryDx=0;entryDy=0;" parent="1" source="PkiAVml4FqlAzw377sm1-39" target="PkiAVml4FqlAzw377sm1-47" edge="1">
          <mxGeometry width="50" height="50" relative="1" as="geometry">
            <mxPoint x="1353" y="1340" as="sourcePoint" />
            <mxPoint x="1403" y="1290" as="targetPoint" />
          </mxGeometry>
        </mxCell>
        <mxCell id="PkiAVml4FqlAzw377sm1-62" value="" style="endArrow=classic;html=1;rounded=0;exitX=0.5;exitY=1;exitDx=0;exitDy=0;entryX=0.48;entryY=0.008;entryDx=0;entryDy=0;entryPerimeter=0;" parent="1" source="PkiAVml4FqlAzw377sm1-48" target="PkiAVml4FqlAzw377sm1-49" edge="1">
          <mxGeometry width="50" height="50" relative="1" as="geometry">
            <mxPoint x="943.5" y="871" as="sourcePoint" />
            <mxPoint x="993.5" y="821" as="targetPoint" />
          </mxGeometry>
        </mxCell>
        <mxCell id="PkiAVml4FqlAzw377sm1-63" value="" style="endArrow=classic;html=1;rounded=0;exitX=0.5;exitY=1;exitDx=0;exitDy=0;entryX=0.5;entryY=0;entryDx=0;entryDy=0;" parent="1" source="PkiAVml4FqlAzw377sm1-48" target="PkiAVml4FqlAzw377sm1-50" edge="1">
          <mxGeometry width="50" height="50" relative="1" as="geometry">
            <mxPoint x="943.5" y="871" as="sourcePoint" />
            <mxPoint x="993.5" y="821" as="targetPoint" />
          </mxGeometry>
        </mxCell>
        <mxCell id="PkiAVml4FqlAzw377sm1-64" value="" style="endArrow=classic;html=1;rounded=0;exitX=0.5;exitY=1;exitDx=0;exitDy=0;entryX=0.5;entryY=0;entryDx=0;entryDy=0;" parent="1" source="PkiAVml4FqlAzw377sm1-48" target="PkiAVml4FqlAzw377sm1-51" edge="1">
          <mxGeometry width="50" height="50" relative="1" as="geometry">
            <mxPoint x="943.5" y="871" as="sourcePoint" />
            <mxPoint x="993.5" y="821" as="targetPoint" />
          </mxGeometry>
        </mxCell>
        <mxCell id="PkiAVml4FqlAzw377sm1-65" value="" style="endArrow=classic;html=1;rounded=0;exitX=0.5;exitY=1;exitDx=0;exitDy=0;" parent="1" source="PkiAVml4FqlAzw377sm1-48" target="PkiAVml4FqlAzw377sm1-54" edge="1">
          <mxGeometry width="50" height="50" relative="1" as="geometry">
            <mxPoint x="1283.5" y="871" as="sourcePoint" />
            <mxPoint x="1333.5" y="821" as="targetPoint" />
          </mxGeometry>
        </mxCell>
        <mxCell id="PkiAVml4FqlAzw377sm1-66" value="" style="endArrow=classic;html=1;rounded=0;entryX=0.5;entryY=0;entryDx=0;entryDy=0;" parent="1" target="PkiAVml4FqlAzw377sm1-52" edge="1">
          <mxGeometry width="50" height="50" relative="1" as="geometry">
            <mxPoint x="1213.5" y="841" as="sourcePoint" />
            <mxPoint x="1333.5" y="821" as="targetPoint" />
          </mxGeometry>
        </mxCell>
        <mxCell id="PkiAVml4FqlAzw377sm1-67" value="" style="endArrow=classic;html=1;rounded=0;exitX=0.5;exitY=1;exitDx=0;exitDy=0;entryX=0.5;entryY=0;entryDx=0;entryDy=0;" parent="1" source="PkiAVml4FqlAzw377sm1-48" target="PkiAVml4FqlAzw377sm1-53" edge="1">
          <mxGeometry width="50" height="50" relative="1" as="geometry">
            <mxPoint x="1283.5" y="871" as="sourcePoint" />
            <mxPoint x="1333.5" y="821" as="targetPoint" />
          </mxGeometry>
        </mxCell>
        <mxCell id="35FWn0BOx3e-7nPWBhw9-23" style="edgeStyle=orthogonalEdgeStyle;rounded=0;orthogonalLoop=1;jettySize=auto;html=1;exitX=0.5;exitY=0;exitDx=0;exitDy=0;entryX=0;entryY=0.5;entryDx=0;entryDy=0;" parent="1" source="35FWn0BOx3e-7nPWBhw9-1" target="35FWn0BOx3e-7nPWBhw9-14" edge="1">
          <mxGeometry relative="1" as="geometry" />
        </mxCell>
        <mxCell id="35FWn0BOx3e-7nPWBhw9-1" value="&lt;div&gt;&lt;font style=&quot;font-size: 20px;&quot;&gt;member&lt;/font&gt;&lt;/div&gt;&lt;font style=&quot;font-size: 15px;&quot;&gt;(회원)&lt;/font&gt;" style="rounded=0;whiteSpace=wrap;html=1;" parent="1" vertex="1">
          <mxGeometry x="88" y="1200" width="200" height="60" as="geometry" />
        </mxCell>
        <mxCell id="35FWn0BOx3e-7nPWBhw9-2" value="&lt;div&gt;id&lt;/div&gt;(회원아이디)" style="ellipse;whiteSpace=wrap;html=1;fontColor=#FF0000;fontStyle=5" parent="1" vertex="1">
          <mxGeometry x="-131" y="1309" width="120" height="50" as="geometry" />
        </mxCell>
        <mxCell id="35FWn0BOx3e-7nPWBhw9-3" value="&lt;div&gt;pw&lt;/div&gt;(비밀번호)" style="ellipse;whiteSpace=wrap;html=1;" parent="1" vertex="1">
          <mxGeometry x="-1" y="1309" width="120" height="50" as="geometry" />
        </mxCell>
        <mxCell id="35FWn0BOx3e-7nPWBhw9-4" value="&lt;div&gt;name&lt;/div&gt;(이름)" style="ellipse;whiteSpace=wrap;html=1;" parent="1" vertex="1">
          <mxGeometry x="129" y="1309" width="120" height="50" as="geometry" />
        </mxCell>
        <mxCell id="35FWn0BOx3e-7nPWBhw9-5" value="&lt;div&gt;email&lt;/div&gt;(이메일)" style="ellipse;whiteSpace=wrap;html=1;" parent="1" vertex="1">
          <mxGeometry x="259" y="1309" width="120" height="50" as="geometry" />
        </mxCell>
        <mxCell id="35FWn0BOx3e-7nPWBhw9-6" value="&lt;div&gt;tel&lt;/div&gt;(연락처)" style="ellipse;whiteSpace=wrap;html=1;" parent="1" vertex="1">
          <mxGeometry x="389" y="1309" width="120" height="50" as="geometry" />
        </mxCell>
        <mxCell id="35FWn0BOx3e-7nPWBhw9-7" value="" style="endArrow=classic;html=1;rounded=0;exitX=0.5;exitY=1;exitDx=0;exitDy=0;entryX=0.5;entryY=0;entryDx=0;entryDy=0;" parent="1" source="35FWn0BOx3e-7nPWBhw9-1" target="35FWn0BOx3e-7nPWBhw9-2" edge="1">
          <mxGeometry width="50" height="50" relative="1" as="geometry">
            <mxPoint x="169" y="1320" as="sourcePoint" />
            <mxPoint x="219" y="1270" as="targetPoint" />
          </mxGeometry>
        </mxCell>
        <mxCell id="35FWn0BOx3e-7nPWBhw9-8" value="" style="endArrow=classic;html=1;rounded=0;entryX=0.5;entryY=0;entryDx=0;entryDy=0;exitX=0.5;exitY=1;exitDx=0;exitDy=0;" parent="1" source="35FWn0BOx3e-7nPWBhw9-1" target="35FWn0BOx3e-7nPWBhw9-3" edge="1">
          <mxGeometry width="50" height="50" relative="1" as="geometry">
            <mxPoint x="169" y="1320" as="sourcePoint" />
            <mxPoint x="219" y="1270" as="targetPoint" />
          </mxGeometry>
        </mxCell>
        <mxCell id="35FWn0BOx3e-7nPWBhw9-9" value="" style="endArrow=classic;html=1;rounded=0;exitX=0.5;exitY=1;exitDx=0;exitDy=0;entryX=0.5;entryY=0;entryDx=0;entryDy=0;" parent="1" source="35FWn0BOx3e-7nPWBhw9-1" target="35FWn0BOx3e-7nPWBhw9-4" edge="1">
          <mxGeometry width="50" height="50" relative="1" as="geometry">
            <mxPoint x="169" y="1320" as="sourcePoint" />
            <mxPoint x="219" y="1270" as="targetPoint" />
          </mxGeometry>
        </mxCell>
        <mxCell id="35FWn0BOx3e-7nPWBhw9-10" value="" style="endArrow=classic;html=1;rounded=0;entryX=0.5;entryY=0;entryDx=0;entryDy=0;" parent="1" target="35FWn0BOx3e-7nPWBhw9-5" edge="1">
          <mxGeometry width="50" height="50" relative="1" as="geometry">
            <mxPoint x="189" y="1260" as="sourcePoint" />
            <mxPoint x="219" y="1270" as="targetPoint" />
          </mxGeometry>
        </mxCell>
        <mxCell id="35FWn0BOx3e-7nPWBhw9-11" value="" style="endArrow=classic;html=1;rounded=0;entryX=0.5;entryY=0;entryDx=0;entryDy=0;exitX=0.5;exitY=1;exitDx=0;exitDy=0;" parent="1" source="35FWn0BOx3e-7nPWBhw9-1" target="35FWn0BOx3e-7nPWBhw9-6" edge="1">
          <mxGeometry width="50" height="50" relative="1" as="geometry">
            <mxPoint x="169" y="1320" as="sourcePoint" />
            <mxPoint x="219" y="1270" as="targetPoint" />
          </mxGeometry>
        </mxCell>
        <mxCell id="35FWn0BOx3e-7nPWBhw9-12" value="tno&lt;div&gt;(연번)&lt;/div&gt;" style="ellipse;whiteSpace=wrap;html=1;fontColor=#FF0000;fontStyle=5" parent="1" vertex="1">
          <mxGeometry x="14" y="570" width="90" height="50" as="geometry" />
        </mxCell>
        <mxCell id="35FWn0BOx3e-7nPWBhw9-13" value="" style="endArrow=classic;html=1;rounded=0;exitX=0.5;exitY=1;exitDx=0;exitDy=0;entryX=0.5;entryY=0;entryDx=0;entryDy=0;" parent="1" source="PkiAVml4FqlAzw377sm1-1" target="35FWn0BOx3e-7nPWBhw9-12" edge="1">
          <mxGeometry width="50" height="50" relative="1" as="geometry">
            <mxPoint x="316" y="710" as="sourcePoint" />
            <mxPoint x="366" y="660" as="targetPoint" />
          </mxGeometry>
        </mxCell>
        <mxCell id="35FWn0BOx3e-7nPWBhw9-14" value="글 등록" style="rhombus;whiteSpace=wrap;html=1;fontSize=18;fontStyle=1;fontColor=#0000FF;" parent="1" vertex="1">
          <mxGeometry x="530" y="1090" width="156" height="60" as="geometry" />
        </mxCell>
        <mxCell id="35FWn0BOx3e-7nPWBhw9-18" value="1" style="text;html=1;align=center;verticalAlign=middle;whiteSpace=wrap;rounded=0;fontSize=30;" parent="1" vertex="1">
          <mxGeometry x="474" y="1080" width="60" height="30" as="geometry" />
        </mxCell>
        <mxCell id="35FWn0BOx3e-7nPWBhw9-19" value="&lt;font style=&quot;font-size: 40px;&quot;&gt;∞&lt;/font&gt;" style="text;html=1;align=center;verticalAlign=middle;whiteSpace=wrap;rounded=0;fontSize=30;" parent="1" vertex="1">
          <mxGeometry x="699" y="1080" width="60" height="30" as="geometry" />
        </mxCell>
        <mxCell id="35FWn0BOx3e-7nPWBhw9-20" value="aid" style="text;html=1;align=center;verticalAlign=middle;whiteSpace=wrap;rounded=0;fontColor=#0000FF;fontSize=18;" parent="1" vertex="1">
          <mxGeometry x="699" y="1130" width="60" height="30" as="geometry" />
        </mxCell>
        <mxCell id="35FWn0BOx3e-7nPWBhw9-21" value="id" style="text;html=1;align=center;verticalAlign=middle;whiteSpace=wrap;rounded=0;fontColor=#FF0000;fontSize=18;" parent="1" vertex="1">
          <mxGeometry x="470" y="1130" width="60" height="30" as="geometry" />
        </mxCell>
        <mxCell id="xqu3glGZrrXCqUtckxAK-1" value="" style="endArrow=classic;html=1;rounded=0;exitX=0.5;exitY=1;exitDx=0;exitDy=0;entryX=0.5;entryY=0;entryDx=0;entryDy=0;" edge="1" parent="1" source="PkiAVml4FqlAzw377sm1-39" target="PkiAVml4FqlAzw377sm1-42">
          <mxGeometry width="50" height="50" relative="1" as="geometry">
            <mxPoint x="910" y="1290" as="sourcePoint" />
            <mxPoint x="960" y="1240" as="targetPoint" />
          </mxGeometry>
        </mxCell>
        <mxCell id="xqu3glGZrrXCqUtckxAK-2" value="논리적 ERD" style="text;html=1;align=center;verticalAlign=middle;whiteSpace=wrap;rounded=0;fontSize=30;" vertex="1" parent="1">
          <mxGeometry x="-86" y="320" width="320" height="30" as="geometry" />
        </mxCell>
      </root>
    </mxGraphModel>
  </diagram>
</mxfile>
